<?xml version="1.0" encoding="UTF-8" standalone="no"?>
<!-- Created with Inkscape (http://www.inkscape.org/) -->

<svg
   xmlns:dc="http://purl.org/dc/elements/1.1/"
   xmlns:cc="http://creativecommons.org/ns#"
   xmlns:rdf="http://www.w3.org/1999/02/22-rdf-syntax-ns#"
   xmlns:svg="http://www.w3.org/2000/svg"
   xmlns="http://www.w3.org/2000/svg"
   xmlns:sodipodi="http://sodipodi.sourceforge.net/DTD/sodipodi-0.dtd"
   xmlns:inkscape="http://www.inkscape.org/namespaces/inkscape"
   width="60mm"
   height="60mm"
   viewBox="0 0 60 60"
   version="1.1"
   id="svg1496"
   inkscape:version="0.92.1 r15371"
   sodipodi:docname="tile_green_01.svg">
  <defs
     id="defs1490" />
  <sodipodi:namedview
     id="base"
     pagecolor="#ffffff"
     bordercolor="#666666"
     borderopacity="1.0"
     inkscape:pageopacity="0.0"
     inkscape:pageshadow="2"
     inkscape:zoom="3.959798"
     inkscape:cx="93.597736"
     inkscape:cy="124.85357"
     inkscape:document-units="mm"
     inkscape:current-layer="layer1"
     showgrid="false"
     inkscape:window-width="1920"
     inkscape:window-height="1001"
     inkscape:window-x="-9"
     inkscape:window-y="-9"
     inkscape:window-maximized="1"
     fit-margin-top="0"
     fit-margin-left="0"
     fit-margin-right="0"
     fit-margin-bottom="0" />
  <metadata
     id="metadata1493">
    <rdf:RDF>
      <cc:Work
         rdf:about="">
        <dc:format>image/svg+xml</dc:format>
        <dc:type
           rdf:resource="http://purl.org/dc/dcmitype/StillImage" />
        <dc:title></dc:title>
      </cc:Work>
    </rdf:RDF>
  </metadata>
  <g
     inkscape:label="Calque 1"
     inkscape:groupmode="layer"
     id="layer1"
     transform="translate(-8.3431853,-9.430609)">
    <g
       id="g1232"
       transform="matrix(3.5433071,0,0,3.5433071,-522.28181,-101.19439)">
      <g
         transform="scale(0.26458333)"
         id="use1230">
        <path
           style="fill:#2ecc71;stroke:none"
           inkscape:connector-curvature="0"
           id="path1509"
           d="m 566,118 v 64 h 64 v -64 h -64 m 49.25,27.65 -1.5,-2.35 2.35,-1.5 1.5,2.35 -2.35,1.5 m 4.7,-2.15 5.35,-0.25 0.25,5.3 -5.3,0.25 -0.3,-5.3 m -11.9,-18.95 1.5,2.35 -2.35,1.5 -1.5,-2.35 2.35,-1.5 m -29.55,14 -1.5,-2.35 2.35,-1.5 1.5,2.35 -2.35,1.5 m 5.55,-5.45 -0.3,-5.35 5.3,-0.25 0.3,5.3 -5.3,0.3 m 14.4,-6.2 -1.5,-2.35 2.35,-1.5 1.5,2.35 -2.35,1.5 m 4.5,33.65 3.5,-3.95 4.05,3.6 -3.6,3.9 -3.95,-3.55 m 3,-9 0.6,-2.7 2.7,0.6 -0.55,2.75 -2.75,-0.65 m -13.25,5.05 2.75,0.55 -0.6,2.8 -2.75,-0.6 0.6,-2.75 m 1.9,13.3 -4,-3.6 3.55,-3.95 3.95,3.55 -3.5,4 m 6.1,1.3 2.7,0.6 -0.6,2.7 -2.7,-0.6 0.6,-2.7 m -27.55,-15.1 3.95,3.5 -3.6,4 -3.95,-3.6 3.6,-3.9 m 5.15,1.4 0.6,-2.7 2.7,0.6 -0.55,2.7 -2.75,-0.6 m 17.85,19.45 -0.6,2.7 -2.7,-0.6 0.6,-2.7 2.7,0.6 m -9.5,-3 0.55,-2.8 2.75,0.55 -0.55,2.8 z" />
        <path
           style="fill:#fae8c2;stroke:none"
           inkscape:connector-curvature="0"
           id="path1511"
           d="m 587.2,171.15 -0.55,2.8 2.75,0.55 0.55,-2.8 -2.75,-0.55 m 8.35,8.5 0.6,-2.7 -2.7,-0.6 -0.6,2.7 2.7,0.6 m -16.65,-24.85 -0.6,2.7 2.75,0.6 0.55,-2.7 -2.7,-0.6 m -1.8,4.8 -3.95,-3.5 -3.6,3.9 3.95,3.6 3.6,-4 m 26.3,12.2 -2.7,-0.6 -0.6,2.7 2.7,0.6 0.6,-2.7 m -12.8,-5.5 4,3.6 3.5,-4 -3.95,-3.55 -3.55,3.95 m 4.85,-9.15 -2.75,-0.55 -0.6,2.75 2.75,0.6 0.6,-2.8 m 11.1,-8.3 -0.6,2.7 2.75,0.65 0.55,-2.75 -2.7,-0.6 m -0.1,7.75 -3.5,3.95 3.95,3.55 3.6,-3.9 -4.05,-3.6 m -9.5,-32.05 1.5,2.35 2.35,-1.5 -1.5,-2.35 -2.35,1.5 m -13.2,3.2 0.3,5.35 5.3,-0.3 -0.3,-5.3 -5.3,0.25 m -6.75,8.45 1.5,2.35 2.35,-1.5 -1.5,-2.35 -2.35,1.5 m 32.55,-9.3 -1.5,-2.35 -2.35,1.5 1.5,2.35 2.35,-1.5 m 15.75,16.35 -5.35,0.25 0.3,5.3 5.3,-0.25 -0.25,-5.3 m -11.55,0.05 1.5,2.35 2.35,-1.5 -1.5,-2.35 z" />
      </g>
    </g>
  </g>
</svg>
