<?xml version="1.0" encoding="UTF-8" standalone="no"?>
<!-- Created with Inkscape (http://www.inkscape.org/) -->

<svg
   xmlns:dc="http://purl.org/dc/elements/1.1/"
   xmlns:cc="http://creativecommons.org/ns#"
   xmlns:rdf="http://www.w3.org/1999/02/22-rdf-syntax-ns#"
   xmlns:svg="http://www.w3.org/2000/svg"
   xmlns="http://www.w3.org/2000/svg"
   xmlns:sodipodi="http://sodipodi.sourceforge.net/DTD/sodipodi-0.dtd"
   xmlns:inkscape="http://www.inkscape.org/namespaces/inkscape"
   width="60mm"
   height="60mm"
   viewBox="0 0 60 60"
   version="1.1"
   id="svg1496"
   inkscape:version="0.92.1 r15371"
   sodipodi:docname="tile_green_03.svg">
  <defs
     id="defs1490" />
  <sodipodi:namedview
     id="base"
     pagecolor="#ffffff"
     bordercolor="#666666"
     borderopacity="1.0"
     inkscape:pageopacity="0.0"
     inkscape:pageshadow="2"
     inkscape:zoom="3.959798"
     inkscape:cx="93.597736"
     inkscape:cy="175.3612"
     inkscape:document-units="mm"
     inkscape:current-layer="layer1"
     showgrid="false"
     inkscape:window-width="1920"
     inkscape:window-height="1001"
     inkscape:window-x="-9"
     inkscape:window-y="-9"
     inkscape:window-maximized="1"
     fit-margin-top="0"
     fit-margin-left="0"
     fit-margin-right="0"
     fit-margin-bottom="0" />
  <metadata
     id="metadata1493">
    <rdf:RDF>
      <cc:Work
         rdf:about="">
        <dc:format>image/svg+xml</dc:format>
        <dc:type
           rdf:resource="http://purl.org/dc/dcmitype/StillImage" />
        <dc:title />
      </cc:Work>
    </rdf:RDF>
  </metadata>
  <g
     inkscape:label="Calque 1"
     inkscape:groupmode="layer"
     id="layer1"
     transform="translate(-8.3431853,-9.430609)">
    <g
       id="g1124"
       transform="matrix(3.5433071,0,0,3.5433071,-482.46928,-203.98494)">
      <g
         transform="matrix(0.26458333,0,0,0.26458333,8.3431853,9.430609)"
         id="use1122">
        <path
           style="fill:#2ecc71;stroke:none"
           inkscape:connector-curvature="0"
           id="path23"
           d="m 556,192 h -64 v 64 h 64 v -64 m -4.7,25.25 0.25,5.3 -5.3,0.25 -0.3,-5.3 5.35,-0.25 m -17.25,-18.7 1.5,2.35 -2.35,1.5 -1.5,-2.35 2.35,-1.5 m 7.2,21.1 -1.5,-2.35 2.35,-1.5 1.5,2.35 -2.35,1.5 m -6,3.8 -0.55,2.75 -2.75,-0.65 0.6,-2.7 2.7,0.6 m -2.8,7.15 4.05,3.6 -3.6,3.9 -3.95,-3.55 3.5,-3.95 m -5.75,14.6 2.7,0.6 -0.6,2.7 -2.7,-0.6 0.6,-2.7 m -2.25,-44.3 -1.5,-2.35 2.35,-1.5 1.5,2.35 -2.35,1.5 m -9.4,0.6 0.3,5.3 -5.3,0.3 -0.3,-5.35 5.3,-0.25 m -10.55,11.05 -1.5,-2.35 2.35,-1.5 1.5,2.35 -2.35,1.5 m -5.35,17.55 3.95,3.5 -3.6,4 -3.95,-3.6 3.6,-3.9 m 5.15,1.4 0.6,-2.7 2.7,0.6 -0.55,2.7 -2.75,-0.6 m 14.4,-0.9 2.75,0.55 -0.6,2.8 -2.75,-0.6 0.6,-2.75 m -5.5,14.55 2.75,0.55 -0.55,2.8 -2.75,-0.55 0.55,-2.8 m 3.4,-4.85 3.55,-3.95 3.95,3.55 -3.5,4 -4,-3.6 m 2.85,10.05 2.7,0.6 -0.6,2.7 -2.7,-0.6 z" />
        <path
           style="fill:#31db79;stroke:none"
           inkscape:connector-curvature="0"
           id="path25"
           d="m 522.15,250.95 -2.7,-0.6 -0.6,2.7 2.7,0.6 0.6,-2.7 m -2,-14.6 -3.55,3.95 4,3.6 3.5,-4 -3.95,-3.55 m -4.2,9.35 -2.75,-0.55 -0.55,2.8 2.75,0.55 0.55,-2.8 m 5.5,-14.55 -2.75,-0.55 -0.6,2.75 2.75,0.6 0.6,-2.8 m -16.55,-2.35 -0.6,2.7 2.75,0.6 0.55,-2.7 -2.7,-0.6 m -1.8,4.8 -3.95,-3.5 -3.6,3.9 3.95,3.6 3.6,-4 m 26.3,12.2 -2.7,-0.6 -0.6,2.7 2.7,0.6 0.6,-2.7 m 7.1,-11.6 -4.05,-3.6 -3.5,3.95 3.95,3.55 3.6,-3.9 m -1.8,-8 0.55,-2.75 -2.7,-0.6 -0.6,2.7 z" />
        <path
           style="fill:#29bb65;stroke:none"
           inkscape:connector-curvature="0"
           id="path27"
           d="m 503,210.2 1.5,2.35 2.35,-1.5 -1.5,-2.35 -2.35,1.5 m 12.35,-3.4 -0.3,-5.3 -5.3,0.25 0.3,5.35 5.3,-0.3 m 7.6,-8.25 1.5,2.35 2.35,-1.5 -1.5,-2.35 -2.35,1.5 m 16.8,18.75 1.5,2.35 2.35,-1.5 -1.5,-2.35 -2.35,1.5 m -4.2,-16.4 -1.5,-2.35 -2.35,1.5 1.5,2.35 2.35,-1.5 m 16,21.65 -0.25,-5.3 -5.35,0.25 0.3,5.3 z" />
      </g>
    </g>
  </g>
</svg>
