<?xml version="1.0" encoding="UTF-8" standalone="no"?>
<!-- Created with Inkscape (http://www.inkscape.org/) -->

<svg
   xmlns:dc="http://purl.org/dc/elements/1.1/"
   xmlns:cc="http://creativecommons.org/ns#"
   xmlns:rdf="http://www.w3.org/1999/02/22-rdf-syntax-ns#"
   xmlns:svg="http://www.w3.org/2000/svg"
   xmlns="http://www.w3.org/2000/svg"
   xmlns:sodipodi="http://sodipodi.sourceforge.net/DTD/sodipodi-0.dtd"
   xmlns:inkscape="http://www.inkscape.org/namespaces/inkscape"
   width="60mm"
   height="60mm"
   viewBox="0 0 60 60"
   version="1.1"
   id="svg1496"
   inkscape:version="0.92.1 r15371"
   sodipodi:docname="tile_green_04.svg">
  <defs
     id="defs1490" />
  <sodipodi:namedview
     id="base"
     pagecolor="#ffffff"
     bordercolor="#666666"
     borderopacity="1.0"
     inkscape:pageopacity="0.0"
     inkscape:pageshadow="2"
     inkscape:zoom="3.959798"
     inkscape:cx="93.597736"
     inkscape:cy="64.244418"
     inkscape:document-units="mm"
     inkscape:current-layer="layer1"
     showgrid="false"
     inkscape:window-width="1920"
     inkscape:window-height="1001"
     inkscape:window-x="-9"
     inkscape:window-y="-9"
     inkscape:window-maximized="1"
     fit-margin-top="0"
     fit-margin-left="0"
     fit-margin-right="0"
     fit-margin-bottom="0" />
  <metadata
     id="metadata1493">
    <rdf:RDF>
      <cc:Work
         rdf:about="">
        <dc:format>image/svg+xml</dc:format>
        <dc:type
           rdf:resource="http://purl.org/dc/dcmitype/StillImage" />
        <dc:title />
      </cc:Work>
    </rdf:RDF>
  </metadata>
  <g
     inkscape:label="Calque 1"
     inkscape:groupmode="layer"
     id="layer1"
     transform="translate(-8.3431853,-9.430609)">
    <g
       id="g1120"
       transform="matrix(3.5433071,0,0,3.5433071,-551.84428,-203.98494)">
      <g
         transform="matrix(0.26458333,0,0,0.26458333,8.3431853,9.430609)"
         id="use1118">
        <path
           style="fill:#2ecc71;stroke:none"
           inkscape:connector-curvature="0"
           id="path22"
           d="m 630,192 h -64 v 64 h 64 v -64 m -10.4,25.65 h 2.8 v 2.8 h -2.8 v -2.8 m 1.65,7.65 4.6,2.65 -2.65,4.6 -4.6,-2.65 2.65,-4.6 m -13.5,5.65 v -2.8 h 2.8 v 2.8 h -2.8 m 7.25,5.2 -2.65,4.6 -4.6,-2.65 2.65,-4.6 4.6,2.65 m -2.4,11.15 h 2.8 v 2.8 h -2.8 v -2.8 m -4.35,-3.75 v 2.8 h -2.8 v -2.8 h 2.8 m 10.35,-2.8 h 2.8 v 2.8 h -2.8 v -2.8 m -30.1,-8.95 4.6,2.65 -2.65,4.6 -4.6,-2.65 2.65,-4.6 m 5.35,0.3 v -2.8 h 2.8 v 2.8 z" />
        <path
           style="fill:#29bb65;stroke:none"
           inkscape:connector-curvature="0"
           id="path24"
           d="m 593.85,229.3 v 2.8 h 2.8 v -2.8 h -2.8 m -0.75,5.15 -4.6,-2.65 -2.65,4.6 4.6,2.65 2.65,-4.6 m 28.3,6.3 h -2.8 v 2.8 h 2.8 v -2.8 m -13.15,5.6 v -2.8 h -2.8 v 2.8 h 2.8 m 7.15,0.95 h -2.8 v 2.8 h 2.8 v -2.8 m -3.05,-6.55 2.65,-4.6 -4.6,-2.65 -2.65,4.6 4.6,2.65 m -4.6,-12.6 v 2.8 h 2.8 v -2.8 h -2.8 m 18.1,-0.2 -4.6,-2.65 -2.65,4.6 4.6,2.65 2.65,-4.6 m -3.45,-10.3 h -2.8 v 2.8 h 2.8 z" />
      </g>
    </g>
  </g>
</svg>
